<svg xmlns="http://www.w3.org/2000/svg" class="_1envo" viewBox="0 0 200 200" width="200"><path d="M 19.9253 58.7663 C 19.8876 58.7385 19.8459 58.7037 19.8022 58.6655 C 19.0941 57.788 14.7153 52.3026 10.2536 45.2671 C 8.91533 43.0252 8.04632 41.2768 8.21317 40.8246 C 8.64966 39.6491 16.428 39.0056 18.8234 40.0714 C 19.5519 40.3949 19.5335 40.8232 19.5335 41.0726 C 19.5335 42.1488 19.4804 45.0365 19.4804 45.0365 C 19.4809 45.6333 19.9661 46.1172 20.5634 46.1162 C 21.1618 46.1162 21.645 45.6303 21.643 45.0321 L 21.6306 37.8365 L 21.6286 37.8365 C 21.6286 37.212 20.9468 37.0559 20.8187 37.0316 C 19.5683 37.0256 17.0293 37.0172 14.3031 37.0172 C 8.28766 37.0172 6.94343 37.2641 5.92149 36.5959 C 3.70727 35.148 0.0867513 25.3896 0.00233389 19.8993 C -0.117837 12.1537 4.47149 5.44809 10.9339 2.12557 C 13.6338 0.766161 16.6832 0 19.904 0 C 30.1324 0 38.5558 7.72024 39.6765 17.653 C 39.6775 17.6614 39.6775 17.6709 39.6795 17.6793 C 39.8851 20.0807 26.6504 20.5909 24.0325 19.8924 C 23.6313 19.785 23.5285 19.3741 23.5285 19.1972 C 23.5255 17.3713 23.5131 12.2327 23.5131 12.2327 C 23.5111 11.6355 23.0259 11.1511 22.4286 11.1526 L 22.4276 11.1526 C 21.8312 11.1536 21.347 11.639 21.347 12.2372 L 21.3684 21.7029 C 21.3868 22.2992 21.8873 22.4601 22.0244 22.487 C 23.5131 22.4875 26.9946 22.484 30.2372 22.484 C 34.6199 22.484 36.4607 22.9918 37.6858 23.9244 C 38.5002 24.5455 38.8155 25.7345 38.5399 27.2797 C 36.0823 41.0259 20.5103 58.0563 19.9253 58.7663 Z M 62.1583 26.6841 C 66.0872 28.3679 68.5214 30.2361 68.5214 34.3367 C 68.5214 38.5258 65.3483 41.2317 60.4387 41.2317 C 56.4601 41.2317 53.2667 39.4296 51.6761 36.2864 L 51.4189 35.7796 L 56.0966 33.0692 L 56.403 33.5701 C 57.4562 35.2917 58.6336 36.0256 60.3418 36.0256 C 61.8142 36.0256 62.8033 35.3732 62.8033 34.4013 C 62.8033 33.3246 62.0873 32.9212 59.8741 31.9523 L 58.7493 31.4698 C 55.7475 30.1904 52.9667 28.4126 52.9667 24.1068 C 52.9667 20.2373 55.9328 17.5348 60.1799 17.5348 C 63.3977 17.5348 65.603 18.7805 67.121 21.4536 L 67.4026 21.95 L 62.8704 24.8626 L 62.558 24.3036 C 61.8003 22.9482 61.0867 22.6764 60.1799 22.6764 C 59.232 22.6764 58.6212 23.1991 58.6212 24.0099 C 58.6212 24.9416 59.0711 25.3505 61.0321 26.2001 L 62.1583 26.6841 Z M 95.2687 27.4769 L 98.5709 18.2691 L 104.239 18.2691 L 95.8388 41.6116 L 94.5799 41.6116 L 89.4846 30.6797 C 89.2477 30.1788 89.0034 29.5568 88.7929 28.9869 C 88.5774 29.5578 88.3271 30.1813 88.0897 30.6822 L 82.7953 41.6116 L 81.5449 41.6116 L 73.0103 18.2691 L 79.065 18.2691 L 82.4035 27.4769 C 82.6165 28.0642 82.835 28.7802 83.0262 29.4445 C 83.2531 28.7588 83.5257 28.0185 83.8108 27.4217 L 88.1955 18.0768 L 89.4086 18.0768 L 93.8614 27.4227 C 94.1454 28.019 94.4191 28.7598 94.645 29.4455 C 94.8372 28.7802 95.0572 28.0642 95.2687 27.4769 Z M 110.849 40.9414 L 110.849 17.7921 L 116.569 17.7921 L 116.569 40.9414 L 110.849 40.9414 Z M 135.325 33.1636 L 135.325 27.9903 L 145.947 27.9903 L 145.947 38.3653 L 145.728 38.5461 C 144.513 39.5438 141.291 41.2317 136.927 41.2317 C 129.564 41.2317 124.424 36.353 124.424 29.3676 C 124.424 22.5114 129.384 17.5348 136.218 17.5348 C 139.976 17.5348 142.73 18.5942 144.637 20.7739 L 145.009 21.1997 L 141.11 25.0598 L 140.687 24.6236 C 139.598 23.5007 138.47 22.8051 136.218 22.8051 C 132.717 22.8051 130.272 25.5035 130.272 29.3676 C 130.272 33.3927 132.883 35.9943 136.927 35.9943 C 138.268 35.9943 139.664 35.7632 140.615 35.394 L 140.615 33.1636 L 135.325 33.1636 Z M 164.315 33.1636 L 164.315 27.9903 L 174.937 27.9903 L 174.937 38.3653 L 174.717 38.5461 C 173.501 39.5438 170.28 41.2317 165.917 41.2317 C 158.554 41.2317 153.413 36.353 153.413 29.3676 C 153.413 22.5114 158.374 17.5348 165.206 17.5348 C 168.966 17.5348 171.721 18.5942 173.626 20.7739 L 174 21.1997 L 170.102 25.0598 L 169.677 24.6236 C 168.588 23.5007 167.459 22.8051 165.206 22.8051 C 161.707 22.8051 159.262 25.5035 159.262 29.3676 C 159.262 33.3927 161.874 35.9943 165.917 35.9943 C 167.258 35.9943 168.654 35.7632 169.604 35.394 L 169.604 33.1636 L 164.315 33.1636 Z M 195.898 17.7922 L 201.877 17.7922 L 193.67 33.1964 L 193.67 40.9415 L 187.919 40.9415 L 187.919 33.5253 L 179.176 17.7922 L 185.556 17.7922 L 189.596 25.1731 C 190.031 25.976 190.485 27.0373 190.828 27.8989 C 191.156 27.0443 191.589 25.9924 192.021 25.1801 L 195.898 17.7922 Z"/></svg>